<svg xmlns="http://www.w3.org/2000/svg" width="164" height="34" viewBox="0 0 164 34" fill="none"><path fill-rule="evenodd" clip-rule="evenodd" d="M141.212 21.4441H22.0201V20.9441H141.212V21.4441Z" fill="#D6BD98"></path><path d="M136.565 33.0614V26.0614H139.065C139.445 26.0614 139.788 26.1564 140.095 26.3464C140.405 26.5364 140.65 26.7914 140.83 27.1114C141.01 27.4314 141.1 27.7831 141.1 28.1664C141.1 28.5597 141.006 28.9164 140.82 29.2364C140.636 29.5531 140.39 29.8064 140.08 29.9964C139.77 30.1831 139.431 30.2764 139.065 30.2764H137.785V33.0614H136.565ZM137.785 29.0564H138.935C139.108 29.0564 139.266 29.0131 139.41 28.9264C139.553 28.8397 139.666 28.7231 139.75 28.5764C139.836 28.4297 139.88 28.2664 139.88 28.0864C139.88 27.9031 139.836 27.7381 139.75 27.5914C139.666 27.4447 139.553 27.3281 139.41 27.2414C139.266 27.1547 139.108 27.1114 138.935 27.1114H137.785V29.0564Z" fill="#677D6A"></path><path d="M128.99 33.1914C128.43 33.1914 127.938 33.0547 127.515 32.7814C127.095 32.5081 126.768 32.1414 126.535 31.6814C126.301 31.2181 126.185 30.7047 126.185 30.1414V26.0614H127.405V30.1414C127.405 30.4747 127.466 30.7814 127.59 31.0614C127.716 31.3381 127.896 31.5597 128.13 31.7264C128.366 31.8897 128.653 31.9714 128.99 31.9714C129.33 31.9714 129.616 31.8897 129.85 31.7264C130.083 31.5597 130.26 31.3381 130.38 31.0614C130.503 30.7814 130.565 30.4747 130.565 30.1414V26.0614H131.785V30.1414C131.785 30.5647 131.718 30.9614 131.585 31.3314C131.451 31.6981 131.261 32.0214 131.015 32.3014C130.768 32.5814 130.473 32.7997 130.13 32.9564C129.79 33.1131 129.41 33.1914 128.99 33.1914Z" fill="#677D6A"></path><path d="M118.118 33.1914C117.644 33.1914 117.199 33.0981 116.783 32.9114C116.366 32.7214 115.999 32.4597 115.683 32.1264C115.366 31.7931 115.118 31.4081 114.938 30.9714C114.758 30.5314 114.668 30.0614 114.668 29.5614C114.668 29.0614 114.758 28.5931 114.938 28.1564C115.118 27.7164 115.366 27.3297 115.683 26.9964C115.999 26.6631 116.366 26.4031 116.783 26.2164C117.199 26.0264 117.644 25.9314 118.118 25.9314C118.594 25.9314 119.041 26.0264 119.458 26.2164C119.874 26.4031 120.241 26.6631 120.558 26.9964C120.874 27.3297 121.121 27.7164 121.298 28.1564C121.478 28.5931 121.568 29.0614 121.568 29.5614C121.568 30.0614 121.478 30.5314 121.298 30.9714C121.121 31.4081 120.874 31.7931 120.558 32.1264C120.241 32.4597 119.874 32.7214 119.458 32.9114C119.041 33.0981 118.594 33.1914 118.118 33.1914ZM118.118 31.9714C118.424 31.9714 118.713 31.9081 118.983 31.7814C119.253 31.6547 119.489 31.4814 119.693 31.2614C119.899 31.0381 120.059 30.7814 120.173 30.4914C120.289 30.2014 120.348 29.8914 120.348 29.5614C120.348 29.2314 120.289 28.9214 120.173 28.6314C120.056 28.3381 119.894 28.0814 119.688 27.8614C119.484 27.6414 119.248 27.4681 118.978 27.3414C118.711 27.2147 118.424 27.1514 118.118 27.1514C117.811 27.1514 117.523 27.2147 117.253 27.3414C116.983 27.4681 116.744 27.6431 116.538 27.8664C116.334 28.0864 116.174 28.3414 116.058 28.6314C115.944 28.9214 115.888 29.2314 115.888 29.5614C115.888 29.8947 115.946 30.2064 116.063 30.4964C116.179 30.7864 116.339 31.0431 116.543 31.2664C116.749 31.4864 116.986 31.6597 117.253 31.7864C117.523 31.9097 117.811 31.9714 118.118 31.9714Z" fill="#677D6A"></path><path d="M105.416 33.0614V26.0614H108.101C108.481 26.0614 108.824 26.1564 109.131 26.3464C109.437 26.5364 109.681 26.7914 109.861 27.1114C110.041 27.4281 110.131 27.7797 110.131 28.1664C110.131 28.4831 110.072 28.7747 109.956 29.0414C109.842 29.3047 109.682 29.5331 109.476 29.7264C109.272 29.9197 109.037 30.0664 108.771 30.1664L110.446 33.0614H109.041L107.421 30.2764H106.636V33.0614H105.416ZM106.636 29.0564H107.961C108.134 29.0564 108.292 29.0131 108.436 28.9264C108.579 28.8397 108.694 28.7231 108.781 28.5764C108.867 28.4297 108.911 28.2664 108.911 28.0864C108.911 27.9031 108.867 27.7381 108.781 27.5914C108.694 27.4447 108.579 27.3281 108.436 27.2414C108.292 27.1547 108.134 27.1114 107.961 27.1114H106.636V29.0564Z" fill="#677D6A"></path><path d="M97.358 33.1914C96.8714 33.1914 96.418 33.0964 95.998 32.9064C95.5814 32.7164 95.218 32.4547 94.908 32.1214C94.598 31.7847 94.3547 31.3981 94.178 30.9614C94.0047 30.5214 93.918 30.0514 93.918 29.5514C93.918 29.0247 94.0114 28.5414 94.198 28.1014C94.388 27.6614 94.6464 27.2797 94.973 26.9564C95.2997 26.6331 95.6697 26.3831 96.083 26.2064C96.4997 26.0297 96.933 25.9414 97.383 25.9414C97.8864 25.9414 98.3747 26.0597 98.848 26.2964C99.3247 26.5297 99.7447 26.8914 100.108 27.3814L99.018 27.9664C98.7947 27.6931 98.538 27.4897 98.248 27.3564C97.9614 27.2197 97.668 27.1514 97.368 27.1514C97.0747 27.1514 96.793 27.2114 96.523 27.3314C96.2564 27.4514 96.018 27.6214 95.808 27.8414C95.6014 28.0581 95.438 28.3147 95.318 28.6114C95.198 28.9047 95.138 29.2264 95.138 29.5764C95.138 29.9064 95.1964 30.2181 95.313 30.5114C95.4297 30.8014 95.5897 31.0564 95.793 31.2764C95.9997 31.4931 96.238 31.6631 96.508 31.7864C96.778 31.9097 97.068 31.9714 97.378 31.9714C97.5847 31.9714 97.7864 31.9397 97.983 31.8764C98.183 31.8097 98.3697 31.7147 98.543 31.5914C98.7197 31.4681 98.8764 31.3181 99.013 31.1414C99.153 30.9647 99.2697 30.7647 99.363 30.5414H98.088V29.4764H100.798C100.811 29.9864 100.731 30.4647 100.558 30.9114C100.385 31.3581 100.14 31.7531 99.823 32.0964C99.5064 32.4397 99.138 32.7081 98.718 32.9014C98.298 33.0947 97.8447 33.1914 97.358 33.1914Z" fill="#677D6A"></path><path d="M79.0813 33.0614V26.0614H80.3013V31.8414H83.2163V33.0614H79.0813Z" fill="#677D6A"></path><path d="M70.5924 26.0614H71.9974L74.5424 33.0614H73.2474L72.7974 31.8214H69.7974L69.3474 33.0614H68.0524L70.5924 26.0614ZM70.2424 30.6014H72.3474L71.2924 27.7164L70.2424 30.6014Z" fill="#677D6A"></path><path d="M64.5106 26.0614V27.2814H62.3706V33.0614H61.1506V27.2814H59.0106V26.0614H64.5106Z" fill="#677D6A"></path><path d="M52.936 33.0614V26.0614H54.156V33.0614H52.936Z" fill="#677D6A"></path><path d="M43.6368 33.0614V26.0614H46.1368C46.5168 26.0614 46.8601 26.1564 47.1668 26.3464C47.4768 26.5364 47.7218 26.7914 47.9018 27.1114C48.0818 27.4314 48.1718 27.7831 48.1718 28.1664C48.1718 28.5597 48.0784 28.9164 47.8918 29.2364C47.7084 29.5531 47.4618 29.8064 47.1518 29.9964C46.8418 30.1831 46.5034 30.2764 46.1368 30.2764H44.8568V33.0614H43.6368ZM44.8568 29.0564H46.0068C46.1801 29.0564 46.3384 29.0131 46.4818 28.9264C46.6251 28.8397 46.7384 28.7231 46.8218 28.5764C46.9084 28.4297 46.9518 28.2664 46.9518 28.0864C46.9518 27.9031 46.9084 27.7381 46.8218 27.5914C46.7384 27.4447 46.6251 27.3281 46.4818 27.2414C46.3384 27.1547 46.1801 27.1114 46.0068 27.1114H44.8568V29.0564Z" fill="#677D6A"></path><path d="M35.1479 26.0614H36.5529L39.0979 33.0614H37.8029L37.3529 31.8214H34.3529L33.9029 33.0614H32.6079L35.1479 26.0614ZM34.7979 30.6014H36.9029L35.8479 27.7164L34.7979 30.6014Z" fill="#677D6A"></path><path d="M25.5705 33.1914C25.0972 33.1914 24.6522 33.0981 24.2355 32.9114C23.8189 32.7214 23.4522 32.4597 23.1355 32.1264C22.8222 31.7931 22.5755 31.4081 22.3955 30.9714C22.2189 30.5314 22.1305 30.0614 22.1305 29.5614C22.1305 29.0581 22.2189 28.5881 22.3955 28.1514C22.5755 27.7114 22.8222 27.3264 23.1355 26.9964C23.4522 26.6631 23.8189 26.4031 24.2355 26.2164C24.6522 26.0264 25.0972 25.9314 25.5705 25.9314C26.1372 25.9314 26.6589 26.0631 27.1355 26.3264C27.6122 26.5864 28.0072 26.9347 28.3205 27.3714L27.2305 27.9564C27.0339 27.7131 26.7889 27.5181 26.4955 27.3714C26.2055 27.2247 25.8972 27.1514 25.5705 27.1514C25.2639 27.1514 24.9755 27.2147 24.7055 27.3414C24.4355 27.4647 24.1989 27.6381 23.9955 27.8614C23.7922 28.0814 23.6339 28.3381 23.5205 28.6314C23.4072 28.9214 23.3505 29.2314 23.3505 29.5614C23.3505 29.8947 23.4072 30.2064 23.5205 30.4964C23.6372 30.7864 23.7972 31.0431 24.0005 31.2664C24.2039 31.4864 24.4389 31.6597 24.7055 31.7864C24.9755 31.9097 25.2639 31.9714 25.5705 31.9714C25.9039 31.9714 26.2139 31.8981 26.5005 31.7514C26.7905 31.6014 27.0339 31.4047 27.2305 31.1614L28.3205 31.7514C28.0072 32.1847 27.6122 32.5331 27.1355 32.7964C26.6589 33.0597 26.1372 33.1914 25.5705 33.1914Z" fill="#677D6A"></path><path d="M150.994 16.1941V0.794128H156.098C157.162 0.794128 158.155 0.995796 159.079 1.39913C160.011 1.79513 160.828 2.3488 161.532 3.06013C162.244 3.76413 162.797 4.5818 163.193 5.51313C163.597 6.43713 163.798 7.4308 163.798 8.49413C163.798 9.55746 163.597 10.5548 163.193 11.4861C162.797 12.4101 162.244 13.2278 161.532 13.9391C160.828 14.6431 160.011 15.1968 159.079 15.6001C158.155 15.9961 157.162 16.1941 156.098 16.1941H150.994ZM154.294 12.8941H156.098C156.692 12.8941 157.253 12.7805 157.781 12.5531C158.309 12.3258 158.779 12.0105 159.189 11.6071C159.6 11.2038 159.919 10.7381 160.146 10.2101C160.381 9.6748 160.498 9.1028 160.498 8.49413C160.498 7.88546 160.381 7.31713 160.146 6.78913C159.919 6.26113 159.6 5.79546 159.189 5.39213C158.786 4.98146 158.32 4.66246 157.792 4.43513C157.264 4.2078 156.7 4.09413 156.098 4.09413H154.294V12.8941Z" fill="white"></path><path d="M133.648 16.1941V0.794128H137.212L142.844 10.2321V0.794128H146.144V16.1941H142.58L136.948 6.75613V16.1941H133.648Z" fill="white"></path><path d="M125.182 16.1941V0.794128H128.482V16.1941H125.182Z" fill="white"></path><path d="M101.941 16.1941L104.933 0.794128H107.749L111.203 9.88013L114.657 0.794128H117.473L120.465 16.1941H117.099L115.493 7.87813L112.347 16.1941H110.059L106.913 7.87813L105.307 16.1941H101.941Z" fill="white"></path><path d="M85.8193 16.1941V0.794128H92.0893C92.9326 0.794128 93.6953 1.0068 94.3773 1.43213C95.0593 1.85746 95.5983 2.42946 95.9943 3.14813C96.3976 3.85946 96.5993 4.64413 96.5993 5.50213C96.5993 6.16213 96.4893 6.77813 96.2693 7.35013C96.0493 7.9148 95.7339 8.41713 95.3233 8.85713C94.9199 9.28979 94.4433 9.63813 93.8933 9.90213L97.5453 16.1941H93.7393L90.2633 10.2101H89.1193V16.1941H85.8193ZM89.1193 6.91013H91.6933C91.9866 6.91013 92.2543 6.8368 92.4963 6.69013C92.7383 6.53613 92.9326 6.33446 93.0793 6.08513C93.2259 5.8358 93.2993 5.5608 93.2993 5.26013C93.2993 4.95946 93.2259 4.68446 93.0793 4.43513C92.9326 4.1858 92.7383 3.9878 92.4963 3.84113C92.2543 3.68713 91.9866 3.61013 91.6933 3.61013H89.1193V6.91013Z" fill="white"></path><path d="M71.3947 16.1941V0.794128H81.2067V4.09413H74.6947V6.29413H79.7107V9.59413H74.6947V12.8941H81.2067V16.1941H71.3947Z" fill="white"></path><path d="M66.9972 0.794128V4.09413H62.5972V16.1941H59.2972V4.09413H54.8972V0.794128H66.9972Z" fill="white"></path><path d="M45.2985 16.4801C44.4332 16.4801 43.6045 16.3445 42.8125 16.0731C42.0205 15.7945 41.3275 15.3985 40.7335 14.8851C40.1395 14.3645 39.7105 13.7448 39.4465 13.0261L42.5485 11.8821C42.6219 12.0948 42.7832 12.3001 43.0325 12.4981C43.2892 12.6961 43.6119 12.8611 44.0005 12.9931C44.3892 13.1178 44.8219 13.1801 45.2985 13.1801C45.7385 13.1801 46.1529 13.1178 46.5415 12.9931C46.9302 12.8611 47.2455 12.6815 47.4875 12.4541C47.7295 12.2268 47.8505 11.9628 47.8505 11.6621C47.8505 11.3541 47.7222 11.1011 47.4655 10.9031C47.2162 10.6978 46.8935 10.5365 46.4975 10.4191C46.1089 10.2945 45.7092 10.2028 45.2985 10.1441C44.1839 9.98279 43.1829 9.71879 42.2955 9.35212C41.4155 8.97812 40.7189 8.46479 40.2055 7.81212C39.6995 7.15945 39.4465 6.33079 39.4465 5.32612C39.4465 4.36545 39.7179 3.52579 40.2605 2.80712C40.8032 2.08112 41.5182 1.51645 42.4055 1.11312C43.3002 0.709785 44.2645 0.508118 45.2985 0.508118C46.1639 0.508118 46.9925 0.647451 47.7845 0.926119C48.5839 1.19745 49.2805 1.59345 49.8745 2.11412C50.4685 2.63478 50.8939 3.25812 51.1505 3.98412L48.0485 5.10612C47.9752 4.89345 47.8102 4.69179 47.5535 4.50112C47.3042 4.30312 46.9852 4.14179 46.5965 4.01712C46.2079 3.89245 45.7752 3.83012 45.2985 3.83012C44.8732 3.82279 44.4662 3.88512 44.0775 4.01712C43.6889 4.14912 43.3699 4.32879 43.1205 4.55612C42.8712 4.78345 42.7465 5.04012 42.7465 5.32612C42.7465 5.72212 42.8639 6.01912 43.0985 6.21712C43.3332 6.40778 43.6412 6.54345 44.0225 6.62412C44.4112 6.70479 44.8365 6.77812 45.2985 6.84412C46.3545 6.99812 47.3262 7.27312 48.2135 7.66912C49.1009 8.06512 49.8122 8.59312 50.3475 9.25312C50.8829 9.91312 51.1505 10.7161 51.1505 11.6621C51.1505 12.6228 50.8792 13.4661 50.3365 14.1921C49.8012 14.9108 49.0899 15.4718 48.2025 15.8751C47.3152 16.2785 46.3472 16.4801 45.2985 16.4801Z" fill="white"></path><path d="M27.2962 0.794128H31.0142L36.6022 16.1941H33.1042L32.2242 13.7741H26.0862L25.2062 16.1941H21.7082L27.2962 0.794128ZM27.2962 10.4741H31.0142L29.1442 5.37013L27.2962 10.4741Z" fill="white"></path><path d="M0.0966187 16.1941L3.08862 0.794128H5.90462L9.35862 9.88013L12.8126 0.794128H15.6286L18.6206 16.1941H15.2546L13.6486 7.87813L10.5026 16.1941H8.21462L5.06862 7.87813L3.46262 16.1941H0.0966187Z" fill="white"></path></svg>